<svg width="24" height="20" viewBox="0 0 24 20" fill="none" xmlns="http://www.w3.org/2000/svg">
<path d="M6 5L14 0V20L6 15V5ZM0 15H4V5H0V15ZM20.264 1.736L18.767 3.233C20.614 5.016 21.75 7.39 21.75 10C21.75 12.61 20.615 14.984 18.767 16.766L20.265 18.264C22.57 16.111 24 13.209 24 10C24 6.791 22.57 3.89 20.264 1.736ZM19.775 10C19.775 7.916 18.86 6.033 17.391 4.609L15.888 6.112C16.899 7.161 17.525 8.513 17.525 10C17.525 11.488 16.902 12.841 15.891 13.891L17.394 15.394C18.862 13.97 19.775 12.085 19.775 10Z" fill="white"/>
</svg>
